ply
format ascii 1.0
comment : deezer
comment : MagicaVoxel @ Ephtracy
element vertex 678
property float x
property float y
property float z
property uchar red
property uchar green
property uchar blue
element face 1039
property list uchar int vertex_index
end_header
-1 -1 0.5 255 153 102
-1.5 -0.5 0.5 255 153 102
-1 -0.5 0 255 153 102
-0.5 -0.5 0.5 255 153 102
1 -1 0.5 255 153 102
0.5 -0.5 0.5 255 153 102
1 -0.5 0 255 153 102
1.5 -0.5 0.5 255 153 102
-1 1.5 0 255 153 102
-1.5 1.5 0.5 255 153 102
-1 2 0.5 255 153 102
-0.5 1.5 0.5 255 153 102
1 1.5 0 255 153 102
0.5 1.5 0.5 255 153 102
1 2 0.5 255 153 102
1.5 1.5 0.5 255 153 102
-10 -5 1.5 255 153 102
-10.5 -4.5 1.5 255 153 102
-10 -4.5 1 255 153 102
-9 -4.5 1 255 153 102
-9 -5 1.5 255 153 102
-8.5 -4.5 1.5 255 153 102
9 -5 1.5 255 153 102
8.5 -4.5 1.5 255 153 102
9 -4.5 1 255 153 102
10 -4.5 1 255 153 102
10 -5 1.5 255 153 102
10.5 -4.5 1.5 255 153 102
-10 -3.5 1 255 153 102
10 -3.5 1 255 153 102
-10 -2.5 1 255 153 102
-9 -2.5 1 255 153 102
10 -2.5 1 255 153 102
9 -2.5 1 255 153 102
-10.5 -2.5 1.5 255 153 102
-10 -2 1.5 255 153 102
-9 -2 1.5 255 153 102
-8.5 -2.5 1.5 255 153 102
8.5 -2.5 1.5 255 153 102
9 -2 1.5 255 153 102
10 -2 1.5 255 153 102
10.5 -2.5 1.5 255 153 102
-1 -0.5 1 255 153 102
1 -0.5 1 255 153 102
-1 0.5 1 255 153 102
-1.5 0.5 0.5 255 153 102
-0.5 0.5 0.5 255 153 102
1 0.5 1 255 153 102
0.5 0.5 0.5 255 153 102
1.5 0.5 0.5 255 153 102
-1.5 1.5 1.5 255 153 102
-1 1 1.5 255 153 102
-0.5 1.5 1.5 255 153 102
0.5 1.5 1.5 255 153 102
1 1 1.5 255 153 102
1.5 1.5 1.5 255 153 102
-9 -4.5 2 255 153 102
9 -4.5 2 255 153 102
-0.5 1.5 2.5 255 153 102
-1 1 2.5 255 153 102
1 1 2.5 255 153 102
0.5 1.5 2.5 255 153 102
-7.5 -4.5 3.5 255 153 102
-8 -5 3.5 255 153 102
-8 -4.5 3 255 153 102
8 -5 3.5 255 153 102
7.5 -4.5 3.5 255 153 102
8 -4.5 3 255 153 102
-9.5 -3.5 3.5 255 153 102
-9 -4 3.5 255 153 102
-9.5 -3.5 2.5 255 153 102
-10 -4.5 3 255 153 102
-10 -4 2.5 255 153 102
-8 -4 3.5 255 153 102
8 -4 3.5 255 153 102
9 -4 3.5 255 153 102
9 -4.5 3 255 153 102
10 -4.5 3 255 153 102
10 -4 2.5 255 153 102
9.5 -3.5 3.5 255 153 102
-1 1 3.5 255 153 102
0 1 3.5 255 153 102
0 1.5 3 255 153 102
1 1 3.5 255 153 102
-1.5 1.5 3.5 255 153 102
-1.5 2.5 3.5 255 153 102
-1.5 1.5 2.5 255 153 102
0 2.5 3 255 153 102
-1 2.5 3 255 153 102
-1 2 2.5 255 153 102
1 2.5 3 255 153 102
1 2 2.5 255 153 102
1.5 1.5 3.5 255 153 102
1.5 1.5 2.5 255 153 102
1.5 2.5 3.5 255 153 102
-8 -4.5 4 255 153 102
8 -4.5 4 255 153 102
-10 -4.5 4 255 153 102
-9 -4.5 4 255 153 102
-10 -4 4.5 255 153 102
-9.5 -3.5 4.5 255 153 102
9 -4.5 4 255 153 102
10 -4.5 4 255 153 102
10 -4 4.5 255 153 102
-8.5 -2.5 3.5 255 153 102
-8.5 -2.5 4.5 255 153 102
-9 -3 4.5 255 153 102
-9 -2 3.5 255 153 102
-10 -2 4.5 255 153 102
-9.5 -1.5 4.5 255 153 102
-9 -1.5 4 255 153 102
-8 -1.5 4 255 153 102
7 -2 4.5 255 153 102
6.5 -1.5 4.5 255 153 102
7 -1.5 4 255 153 102
9 -1.5 4 255 153 102
9 -2 3.5 255 153 102
8 -1.5 4 255 153 102
9.5 -1.5 4.5 255 153 102
10 -2 4.5 255 153 102
-1.5 1.5 4.5 255 153 102
-1.5 0.5 4.5 255 153 102
1.5 1.5 4.5 255 153 102
1.5 0.5 4.5 255 153 102
-7.5 -4.5 5.5 255 153 102
-8 -5 5.5 255 153 102
-8 -4.5 5 255 153 102
8 -5 5.5 255 153 102
7.5 -4.5 5.5 255 153 102
8 -4.5 5 255 153 102
-9.5 -3.5 5.5 255 153 102
-9 -4 5.5 255 153 102
-10 -4.5 5 255 153 102
-8 -4 5.5 255 153 102
-5.5 -3.5 5.5 255 153 102
-6 -4 5.5 255 153 102
-6 -3.5 5 255 153 102
6 -4 5.5 255 153 102
5.5 -3.5 5.5 255 153 102
6 -3.5 5 255 153 102
8 -4 5.5 255 153 102
9 -4 5.5 255 153 102
9 -4.5 5 255 153 102
10 -4.5 5 255 153 102
9.5 -3.5 5.5 255 153 102
-9 -3 5.5 255 153 102
-8 -3 5.5 255 153 102
-6 -2.5 5 255 153 102
-7 -2.5 5 255 153 102
-5.5 -2.5 5.5 255 153 102
5.5 -2.5 5.5 255 153 102
6 -2.5 5 255 153 102
7 -2.5 5 255 153 102
9 -3 5.5 255 153 102
8 -3 5.5 255 153 102
9 -3 4.5 255 153 102
8.5 -2.5 4.5 255 153 102
-6.5 -1.5 5.5 255 153 102
-6 -2 5.5 255 153 102
-6.5 -1.5 4.5 255 153 102
6.5 -1.5 5.5 255 153 102
-4 0 5.5 255 153 102
-4.5 0.5 5.5 255 153 102
-4 0.5 5 255 153 102
-2 0 5.5 255 153 102
-2 0.5 5 255 153 102
-1 0 4.5 255 153 102
2 0 5.5 255 153 102
1 0 4.5 255 153 102
2 0.5 5 255 153 102
4.5 0.5 5.5 255 153 102
4 0 5.5 255 153 102
4 0.5 5 255 153 102
-2 1.5 5 255 153 102
2 1.5 5 255 153 102
-1 2.5 5 255 153 102
-1 2 4.5 255 153 102
1 2.5 5 255 153 102
1 2 4.5 255 153 102
-4 2.5 5 255 153 102
-4.5 2.5 5.5 255 153 102
-4 3 5.5 255 153 102
4.5 2.5 5.5 255 153 102
4 2.5 5 255 153 102
4 3 5.5 255 153 102
-10 -4.5 6 255 153 102
-10.5 -4.5 5.5 255 153 102
-10 -5 5.5 255 153 102
-8 -4.5 6 255 153 102
8 -4.5 6 255 153 102
10.5 -4.5 5.5 255 153 102
10 -4.5 6 255 153 102
10 -5 5.5 255 153 102
-9 -4.5 6 255 153 102
-10 -3.5 6 255 153 102
-6 -3.5 6 255 153 102
6 -3.5 6 255 153 102
9 -4.5 6 255 153 102
10 -3.5 6 255 153 102
-9 -2.5 6 255 153 102
-6 -2.5 6 255 153 102
6 -2.5 6 255 153 102
9 -2.5 6 255 153 102
-4.5 2.5 6.5 255 153 102
-4 3 6.5 255 153 102
0 3 5.5 255 153 102
-1 3 5.5 255 153 102
0 3 6.5 255 153 102
1 3 5.5 255 153 102
4.5 2.5 6.5 255 153 102
4 3 6.5 255 153 102
-6.5 -0.5 6.5 255 153 102
-6 0.5 7 255 153 102
-7 0 7.5 255 153 102
-6 0 7.5 255 153 102
-5.5 0.5 7.5 255 153 102
6.5 -0.5 6.5 255 153 102
7 -0.5 7 255 153 102
6.5 0.5 6.5 255 153 102
-6 3.5 7 255 153 102
-6 2.5 7 255 153 102
-7 3.5 7 255 153 102
-5.5 3.5 7.5 255 153 102
-5.5 2.5 7.5 255 153 102
5.5 3.5 7.5 255 153 102
6 3.5 7 255 153 102
6 2.5 7 255 153 102
5.5 2.5 7.5 255 153 102
7 3.5 7 255 153 102
-6 4 7.5 255 153 102
6 4 7.5 255 153 102
-4.5 0 8 255 153 102
-4.5 0.5 7.5 255 153 102
-4 0 7.5 255 153 102
-4 -0.25 7.75 255 153 102
-3.5 -0.25 7.75 255 153 102
0 0 7.5 255 153 102
0 0 8.5 255 153 102
-1 0 7.5 255 153 102
1 0 7.5 255 153 102
3.5 -0.25 7.75 255 153 102
4 0 7.5 255 153 102
4 -0.25 7.75 255 153 102
4.5 0 8 255 153 102
4.5 0.5 7.5 255 153 102
-4.5 -0.5 8.5 255 51 102
-4 -1 8.5 255 51 102
-4 -1 9 255 51 102
-4.5 -0.5 9 255 51 102
-3.5 -1 9 255 51 102
-3.5 -1 8.5 255 51 102
-3.5 -1 9 255 153 102
-3.5 -1 8.5 255 153 102
-3 -1 8.5 255 153 102
-4 -1 9.5 255 153 102
-4 -1 9 255 153 102
3.5 -1 9 255 51 102
3.5 -1 8.5 255 51 102
4 -1 8.5 255 51 102
4 -1 9 255 51 102
4.5 -0.5 8.5 255 51 102
4.5 -0.5 9 255 51 102
-4.5 0 9 255 153 102
-4.5 -0.5 9 255 153 102
-4.5 -0.5 9.5 255 153 102
4.5 0 9 255 153 102
4.5 -0.5 9.5 255 153 102
4.5 -0.5 9 255 153 102
-5 0 10.5 255 153 102
-6 0 9.5 255 153 102
-5.5 0.5 9.5 255 153 102
-5 0.5 10 255 153 102
-4.5 0.5 9.5 255 153 102
-4.5 -0.5 10.5 255 153 102
4.5 0.5 9.5 255 153 102
5 0.5 10 255 153 102
5 0 10.5 255 153 102
4.5 -0.5 10.5 255 153 102
5.5 0.5 9.5 255 153 102
6 0 9.5 255 153 102
-8.5 4.5 10.5 255 153 102
-8 4.5 10 255 153 102
-8.5 3.5 10.5 255 153 102
-5 4.5 10 255 153 102
-5 3.5 10 255 153 102
-6 4.5 10 255 153 102
-5.5 3.5 9.5 255 153 102
-6 4 9.5 255 153 102
-4 4 10.5 255 153 102
-4 4 9.5 255 153 102
-4.5 4.5 10.5 255 153 102
-4.5 3.5 9.5 255 153 102
4 4 10.5 255 153 102
4.5 4.5 10.5 255 153 102
4 4 9.5 255 153 102
5 3.5 10 255 153 102
4.5 3.5 9.5 255 153 102
5 4.5 10 255 153 102
6 4.5 10 255 153 102
6 4 9.5 255 153 102
5.5 3.5 9.5 255 153 102
8.5 3.5 10.5 255 153 102
9 3.5 10 255 153 102
8.5 4.5 10.5 255 153 102
9 4 9.5 255 153 102
8 4 9.5 255 153 102
9.5 3.5 9.5 255 153 102
-8 5 10.5 255 153 102
-6 5 10.5 255 153 102
-5 5 10.5 255 153 102
5 5 10.5 255 153 102
-1 -2 11.5 255 153 102
-1.5 -1.5 11.5 255 153 102
-1 -1.5 11 255 153 102
1.5 -1.5 11.5 255 153 102
1 -2 11.5 255 153 102
1 -1.5 11 255 153 102
-4 -0.5 11 255 153 102
-4 -1 10.5 255 153 102
-1 -1 10.5 255 153 102
-2 -1 10.5 255 153 102
-1.5 -0.5 11.5 255 153 102
0 -1.5 11 255 153 102
0 -0.5 11 255 153 102
1 -1 10.5 255 153 102
2 -1 10.5 255 153 102
1.5 -0.5 11.5 255 153 102
4 -0.5 11 255 153 102
4 -1 10.5 255 153 102
-5 0 11.5 255 153 102
-4.5 0.5 11.5 255 153 102
-4 0.5 11 255 153 102
5 0 11.5 255 153 102
4 0.5 11 255 153 102
-1 -2 12.5 255 153 102
-1.5 -1.5 12.5 255 153 102
1.5 -1.5 12.5 255 153 102
1 -2 12.5 255 153 102
-4.5 0.5 12.5 255 153 102
-5 0 12.5 255 153 102
4.5 0.5 11.5 255 153 102
5 0 12.5 255 153 102
4.5 0.5 12.5 255 153 102
-4.5 1.5 12.5 255 153 102
-2.5 0.5 12.5 255 153 102
-2.5 1.5 12.5 255 153 102
-2.5 0.5 11.5 255 153 102
-3 1.5 12 255 153 102
-3 1 11.5 255 153 102
2.5 0.5 12.5 255 153 102
2.5 0.5 11.5 255 153 102
2.5 1.5 12.5 255 153 102
3 1 11.5 255 153 102
3 1.5 12 255 153 102
4.5 1.5 12.5 255 153 102
4 1.5 12 255 153 102
4 1 11.5 255 153 102
-4 1.5 12 255 153 102
-3 2.5 12 255 153 102
-4 2.5 12 255 153 102
4 2.5 12 255 153 102
3 2.5 12 255 153 102
-1.5 -1 13 255 255 255
-1 -1.25 13.25 255 255 255
-1 -1 13.5 255 255 255
-1.5 -0.5 13.5 255 255 255
1.5 -1 13 255 255 255
1.5 -0.5 13.5 255 255 255
1 -1 13.5 255 255 255
1 -1.25 13.25 255 255 255
-8 0.5 13 255 153 102
-8.5 0.5 12.5 255 153 102
-8 0 12.5 255 153 102
-5 0.5 13 255 153 102
-1.5 0 13 255 153 102
-1.5 -0.5 12.5 255 153 102
-1.5 -0.5 13 255 153 102
1.5 0 13 255 153 102
1.5 -0.5 13 255 153 102
1.5 -0.5 12.5 255 153 102
5 0.5 13 255 153 102
8.5 0.5 12.5 255 153 102
8 0.5 13 255 153 102
8 0 12.5 255 153 102
-5 1.5 13 255 153 102
-8 5 12.5 255 153 102
-8.5 4.5 12.5 255 153 102
-8 4.5 13 255 153 102
-4.5 4.5 12.5 255 153 102
-5 5 12.5 255 153 102
-5 4.5 13 255 153 102
5 5 12.5 255 153 102
4.5 4.5 12.5 255 153 102
5 4.5 13 255 153 102
8.5 4.5 12.5 255 153 102
8 5 12.5 255 153 102
8 4.5 13 255 153 102
-1 -1 14 255 255 255
-1.5 -0.5 14 255 255 255
-0.5 -1 14 255 255 255
0 -1 13.5 255 255 255
-0.5 -1 14 255 153 102
-1 -1 14.5 255 153 102
-1 -1 14 255 153 102
0 -1.25 13.75 255 255 255
0.5 -1 14 255 255 255
1 -1 14 255 255 255
0.5 -1 14 255 153 102
1 -1 14 255 153 102
1 -1 14.5 255 153 102
1.5 -0.5 14 255 255 255
-1.5 0 14 255 255 255
-1.5 0 14 255 153 102
-1.5 -0.5 14 255 153 102
-1.5 -0.5 14.5 255 153 102
1.5 0 14 255 153 102
1.5 -0.5 14.5 255 153 102
1.5 -0.5 14 255 153 102
-1.5 2.5 14.5 255 153 102
-1 3 14.5 255 153 102
-1 3 13.5 255 153 102
-1.5 2.5 13.5 255 153 102
1.5 2.5 14.5 255 153 102
1.5 2.5 13.5 255 153 102
1 3 13.5 255 153 102
1 3 14.5 255 153 102
-1 -1 15.5 238 0 0
-1.5 -0.5 15.5 238 0 0
-1.5 -0.5 15 238 0 0
-1 -1 15 238 0 0
-0.5 -1 15 238 0 0
-0.5 -1 15 255 153 102
-1 -1 15 255 153 102
0 -1 15.5 255 153 102
-0.5 -1 15.5 255 153 102
-0.5 -1 15.5 238 0 0
0.5 -1 15 238 0 0
1 -1 15.5 238 0 0
0.5 -1 15.5 238 0 0
0.5 -1 15 255 153 102
0.5 -1 15.5 255 153 102
1 -1 15 255 153 102
1 -1 15 238 0 0
1.5 -0.5 15.5 238 0 0
1.5 -0.5 15 238 0 0
-1.5 0 15 255 153 102
-1.5 -0.5 15 255 153 102
1.5 0 15 255 153 102
1.5 -0.5 15 255 153 102
-1.5 -1 16 238 0 0
-1.5 -0.5 16 238 0 0
-1 -1.25 15.75 238 0 0
-0.5 -1.25 15.75 238 0 0
-0.5 -1.25 15.75 255 153 102
-1 -1.5 16 255 153 102
-1 -1.25 15.75 255 153 102
0.5 -1.25 15.75 255 153 102
0.5 -1.25 15.75 238 0 0
1 -1.25 15.75 238 0 0
1 -1.25 15.75 255 153 102
1 -1.5 16 255 153 102
1.5 -1 16 238 0 0
-1 2 17.5 255 153 102
-1.5 1.5 17.5 255 153 102
-1 1.5 18 255 153 102
1.5 1.5 17.5 255 153 102
1 2 17.5 255 153 102
1 1.5 18 255 153 102
-9.5 -3.5 1.5 255 153 102
9.5 -3.5 1.5 255 153 102
-10.5 -3.5 2.5 255 153 102
10.5 -3.5 2.5 255 153 102
-10.5 -4.5 3.5 255 153 102
-10.5 -2.5 3.5 255 153 102
-10.5 -2.5 5.5 255 153 102
-10.5 -3.5 4.5 255 153 102
-9 -3 2.5 255 153 102
-9 -3 1.5 255 153 102
-9 -3 3.5 255 153 102
10.5 -2.5 3.5 255 153 102
10.5 -4.5 3.5 255 153 102
10.5 -3.5 4.5 255 153 102
10.5 -2.5 5.5 255 153 102
-9.5 -1.5 5.5 255 153 102
-10 -5 3.5 255 153 102
10 -5 3.5 255 153 102
-1 3 3.5 255 153 102
1 3 3.5 255 153 102
-7 -1.5 4 255 153 102
-7 2.5 6 255 153 102
7 2.5 6 255 153 102
-7 -3 5.5 255 153 102
7 -3 5.5 255 153 102
-9.5 -0.5 6.5 255 153 102
-9.5 0.5 5.5 255 153 102
-9.5 0.5 6.5 255 153 102
-9.5 1.5 5.5 255 153 102
-9.5 0.5 4.5 255 153 102
-9.5 1.5 6.5 255 153 102
-9.5 0.5 7.5 255 153 102
-9.5 1.5 7.5 255 153 102
-9.5 2.5 6.5 255 153 102
-9.5 2.5 7.5 255 153 102
6.5 0.5 5.5 255 153 102
9.5 1.5 5.5 255 153 102
9.5 1.5 6.5 255 153 102
9.5 0.5 6.5 255 153 102
9.5 0.5 7.5 255 153 102
9.5 -0.5 6.5 255 153 102
9.5 1.5 7.5 255 153 102
9.5 2.5 6.5 255 153 102
9.5 2.5 7.5 255 153 102
0 0 5.5 255 153 102
-7 -2.5 6 255 153 102
7 -2.5 6 255 153 102
-9 -1.5 6 255 153 102
-10 -2.5 6 255 153 102
-8 -1.5 6 255 153 102
7 -1.5 6 255 153 102
8 -1.5 6 255 153 102
-7 -1.5 6 255 153 102
9.5 -1.5 5.5 255 153 102
10 -2.5 6 255 153 102
9 -1.5 6 255 153 102
8 -1 6.5 255 153 102
-4.5 0.5 8.5 255 153 102
4.5 0.5 8.5 255 153 102
-3 3 6.5 255 153 102
-2 3 5.5 255 153 102
-2 4 6.5 255 153 102
-3 4 7.5 255 153 102
-1 4 6.5 255 153 102
1 4 6.5 255 153 102
2 3 5.5 255 153 102
3 3 6.5 255 153 102
-6 1.5 7 255 153 102
-6.5 2.5 6.5 255 153 102
5.5 0.5 7.5 255 153 102
6 0 7.5 255 153 102
-4.5 3.5 7.5 255 153 102
-4 4 7.5 255 153 102
4 4 7.5 255 153 102
4.5 3.5 7.5 255 153 102
-1 4 7.5 255 153 102
2 4 6.5 255 153 102
1 4 7.5 255 153 102
3 4 7.5 255 153 102
4 4 8.5 255 153 102
2 4 8.5 255 153 102
2 4 10.5 255 153 102
3 4 9.5 255 153 102
-4.5 0 8 255 51 102
-4 -0.25 7.75 255 51 102
-1 -1 8.5 255 153 102
1 -1 8.5 255 153 102
4.5 0 8 255 51 102
4 -0.25 7.75 255 51 102
-8 0 7.5 255 153 102
-9 0 8.5 255 153 102
-9 0 7.5 255 153 102
-8 0 9.5 255 153 102
-8 0 8.5 255 153 102
-7 0 9.5 255 153 102
-7 0 8.5 255 153 102
-8 0 10.5 255 153 102
-9 0 9.5 255 153 102
-7 0 10.5 255 153 102
-6 0 10.5 255 153 102
-6 0 11.5 255 153 102
-4.5 0 9 255 51 102
4.5 0 9 255 51 102
4 -1 9 255 153 102
3.5 -1 9 255 153 102
-9.5 0.5 9.5 255 153 102
-8.5 0.5 10.5 255 153 102
8.5 0.5 10.5 255 153 102
9 0 9.5 255 153 102
9.5 0.5 9.5 255 153 102
8 0 10.5 255 153 102
-9.5 3.5 9.5 255 153 102
-9 4 9.5 255 153 102
-7 4.5 10 255 153 102
8 5 10.5 255 153 102
-2 0 11.5 255 153 102
-3 0.5 11 255 153 102
-2 -0.5 11 255 153 102
0 0 10.5 255 153 102
2 0 11.5 255 153 102
2 -0.5 11 255 153 102
3 0.5 11 255 153 102
-8.5 3.5 11.5 255 153 102
-8.5 2.5 10.5 255 153 102
-2 3 11.5 255 153 102
-1 3 10.5 255 153 102
-2 4 10.5 255 153 102
1 3 10.5 255 153 102
2 3 11.5 255 153 102
-1.5 -1 13 255 153 102
1.5 -1 13 255 153 102
5 2.5 13 255 153 102
-1 -1.25 13.25 255 153 102
1 -1.25 13.25 255 153 102
1.5 0 13 255 255 255
-1.5 0.5 13.5 255 153 102
-1.5 0 16 255 153 102
-1.5 0.5 15.5 255 153 102
1.5 0.5 13.5 255 153 102
1.5 0.5 15.5 255 153 102
1.5 0 16 255 153 102
1.5 0 15 238 0 0
-1 2 15.5 255 153 102
-1.5 1.5 15.5 255 153 102
1 2 15.5 255 153 102
1.5 1.5 15.5 255 153 102
-1.5 -1.5 16.5 255 153 102
-1.5 -1 16 255 153 102
-1 -2 16.5 255 153 102
1 -2 16.5 255 153 102
1.5 -1 16 255 153 102
1.5 -1.5 16.5 255 153 102
-9 0.5 4 255 153 102
7 0.5 4 255 153 102
6.5 0.5 4.5 255 153 102
-6.5 0.5 4.5 255 153 102
-7 0.5 4 255 153 102
9.5 0.5 4.5 255 153 102
9 0.5 4 255 153 102
10.5 -2.5 4.5 255 153 102
4 1.5 5 255 153 102
6.5 2.5 6.5 255 153 102
8 0 7.5 255 153 102
0 3 7.5 255 153 102
-3.5 -0.25 7.75 255 51 102
3.5 -0.25 7.75 255 51 102
3.5 -1 8.5 255 153 102
2 -1 8.5 255 153 102
9 0 7.5 255 153 102
-9.5 3.5 7.5 255 153 102
-9 4 7.5 255 153 102
9.5 3.5 7.5 255 153 102
9 4 7.5 255 153 102
8 4.5 10 255 153 102
-8.5 2.5 11.5 255 153 102
-3 4 10.5 255 153 102
-3 3 11.5 255 153 102
-5 2.5 13 255 153 102
-4.5 2.5 12.5 255 153 102
4.5 2.5 12.5 255 153 102
0 -1.5 13 255 153 102
1.5 1.5 13.5 255 153 102
0 -2 14.5 255 153 102
0 -1.25 13.75 255 153 102
-1.5 0 13 255 255 255
1.5 0 14 255 255 255
-1.5 0 16 238 0 0
-1.5 0 15 238 0 0
1.5 0 16 238 0 0
-1.5 0.5 17.5 255 153 102
-1.5 -0.5 17.5 255 153 102
1.5 -0.5 17.5 255 153 102
1.5 0.5 17.5 255 153 102
-1 -0.5 18 255 153 102
1 -0.5 18 255 153 102
-9.5 2.5 8.5 255 153 102
9.5 2.5 8.5 255 153 102
-4.5 2.5 8.5 255 153 102
-4.5 2.5 7.5 255 153 102
4.5 2.5 8.5 255 153 102
4.5 2.5 7.5 255 153 102
-8 0 11.5 255 153 102
6 0 12.5 255 153 102
3 3 11.5 255 153 102
-9 3.5 7 255 153 102
-1 3 8.5 255 153 102
-2 4 8.5 255 153 102
1 3 8.5 255 153 102
9 3.5 7 255 153 102
2 0 7.5 255 153 102
3 0 1 2
3 3 0 2
3 4 5 6
3 7 4 6
3 8 9 10
3 11 8 10
3 12 13 14
3 15 12 14
3 16 17 18
3 16 18 19
3 16 19 20
3 21 20 19
3 22 23 24
3 22 24 25
3 22 25 26
3 27 26 25
3 18 28 19
3 25 24 29
3 30 31 28
3 32 29 33
3 30 34 35
3 30 35 36
3 30 36 31
3 37 31 36
3 33 38 39
3 33 39 40
3 33 40 32
3 41 32 40
3 42 1 0
3 3 42 0
3 43 5 4
3 7 43 4
3 1 42 44
3 1 44 45
3 3 46 44
3 3 44 42
3 5 43 47
3 5 47 48
3 7 49 47
3 7 47 43
3 9 45 50
3 45 44 51
3 45 51 50
3 11 52 46
3 46 52 51
3 46 51 44
3 13 48 53
3 48 47 54
3 48 54 53
3 15 55 49
3 49 55 54
3 49 54 47
3 21 56 20
3 57 23 22
3 52 58 59
3 52 59 51
3 53 54 60
3 53 60 61
3 62 63 64
3 65 66 67
3 68 69 70
3 69 71 72
3 69 72 70
3 62 64 73
3 67 66 74
3 67 74 75
3 67 75 76
3 77 76 78
3 78 76 75
3 78 75 79
3 80 59 81
3 81 59 58
3 81 58 82
3 83 81 60
3 81 82 61
3 81 61 60
3 84 85 86
3 87 82 88
3 88 82 58
3 88 58 89
3 87 90 82
3 90 91 61
3 90 61 82
3 92 93 94
3 62 95 63
3 96 66 65
3 97 98 99
3 99 98 69
3 99 69 68
3 100 99 68
3 69 98 95
3 69 95 73
3 62 73 95
3 74 66 96
3 74 96 101
3 74 101 75
3 102 103 101
3 101 103 79
3 101 79 75
3 104 105 106
3 107 108 109
3 107 109 110
3 110 111 107
3 112 113 114
3 115 116 117
3 116 115 118
3 116 118 119
3 120 84 121
3 122 123 92
3 84 120 85
3 92 94 122
3 124 125 126
3 127 128 129
3 130 131 100
3 131 132 99
3 131 99 100
3 124 126 133
3 134 135 136
3 137 138 139
3 129 128 140
3 129 140 141
3 129 141 142
3 143 142 103
3 103 142 141
3 103 141 144
3 130 106 145
3 145 106 146
3 147 136 148
3 149 134 136
3 149 136 147
3 150 151 139
3 150 139 138
3 151 152 139
3 153 154 155
3 154 156 155
3 157 158 159
3 147 148 158
3 149 147 158
3 152 151 112
3 113 112 160
3 161 162 163
3 164 165 121
3 164 121 166
3 167 168 123
3 167 123 169
3 170 171 172
3 121 165 173
3 121 173 120
3 123 122 174
3 123 174 169
3 175 176 120
3 175 120 173
3 177 174 122
3 177 122 178
3 179 180 181
3 182 183 184
3 185 186 187
3 124 188 125
3 189 128 127
3 190 191 192
3 185 193 194
3 193 131 130
3 193 130 194
3 131 193 188
3 131 188 133
3 124 133 188
3 134 195 135
3 196 138 137
3 140 128 189
3 140 189 197
3 140 197 141
3 191 198 197
3 197 198 144
3 197 144 141
3 199 194 130
3 199 130 145
3 134 149 200
3 134 200 195
3 138 196 201
3 138 201 150
3 202 153 144
3 202 144 198
3 203 204 181
3 203 181 180
3 205 206 207
3 205 207 208
3 209 182 184
3 209 184 210
3 211 212 213
3 214 213 212
3 215 214 212
3 216 217 218
3 219 220 221
3 222 223 220
3 222 220 219
3 224 225 226
3 224 226 227
3 225 228 226
3 222 219 229
3 225 224 230
3 231 232 233
3 231 233 234
3 235 234 233
3 236 237 238
3 236 239 237
3 240 241 242
3 243 242 241
3 243 241 244
3 245 246 247
3 245 247 248
3 249 246 250
3 251 252 253
3 251 254 255
3 249 247 246
3 256 257 258
3 256 258 259
3 258 260 261
3 258 261 259
3 262 263 264
3 265 266 267
3 268 269 270
3 268 270 271
3 272 273 268
3 272 268 271
3 274 275 276
3 274 276 277
3 276 275 278
3 276 278 279
3 280 281 282
3 283 284 285
3 285 284 286
3 285 286 287
3 288 289 290
3 290 289 291
3 290 291 284
3 283 290 284
3 292 293 294
3 293 295 296
3 293 296 294
3 297 295 293
3 297 298 295
3 298 299 300
3 298 300 295
3 301 302 303
3 304 305 302
3 306 304 302
3 281 280 307
3 285 308 309
3 285 309 283
3 290 283 309
3 297 293 310
3 311 312 313
3 314 315 316
3 317 273 318
3 319 313 320
3 312 321 313
3 322 313 323
3 322 323 316
3 324 325 316
3 314 316 326
3 277 327 328
3 268 273 329
3 273 330 329
3 317 331 273
3 276 332 277
3 327 277 333
3 312 311 334
3 312 334 335
3 314 336 337
3 314 337 315
3 335 321 312
3 336 314 326
3 330 338 339
3 330 339 329
3 340 332 341
3 340 341 342
3 338 330 343
3 344 345 346
3 345 347 348
3 345 348 346
3 349 350 351
3 351 350 352
3 351 352 353
3 342 354 340
3 354 355 356
3 354 356 340
3 357 347 358
3 357 358 359
3 353 355 360
3 353 360 361
3 362 363 364
3 362 364 365
3 366 367 368
3 366 368 369
3 370 371 372
3 338 373 339
3 374 375 376
3 377 378 379
3 380 342 341
3 381 382 383
3 338 343 384
3 338 384 373
3 385 386 387
3 388 389 390
3 391 392 393
3 394 395 396
3 365 364 397
3 365 397 398
3 399 364 400
3 401 402 403
3 399 397 364
3 399 400 404
3 405 368 406
3 407 408 409
3 405 400 368
3 405 404 400
3 368 367 410
3 368 410 406
3 411 365 398
3 412 413 414
3 415 416 417
3 418 419 420
3 418 420 421
3 422 423 424
3 422 424 425
3 426 427 428
3 426 428 429
3 430 426 429
3 431 432 402
3 431 433 434
3 430 435 426
3 436 437 438
3 439 440 433
3 439 409 441
3 436 442 437
3 443 437 442
3 443 442 444
3 445 414 446
3 447 448 416
3 449 450 427
3 449 427 426
3 449 426 451
3 452 426 435
3 453 434 433
3 453 454 455
3 452 451 426
3 456 433 440
3 457 438 437
3 457 437 458
3 456 459 460
3 461 458 437
3 461 437 443
3 462 463 464
3 465 466 467
3 21 19 468
3 19 28 468
3 469 24 23
3 469 29 24
3 468 31 37
3 468 28 31
3 38 33 469
3 33 29 469
3 72 17 16
3 72 470 17
3 20 56 16
3 56 72 16
3 78 57 26
3 57 22 26
3 26 27 78
3 27 471 78
3 472 473 470
3 186 474 475
3 72 56 468
3 56 21 468
3 468 476 72
3 477 476 468
3 476 478 70
3 23 57 469
3 57 78 469
3 103 155 79
3 103 144 155
3 144 153 155
3 471 479 480
3 481 482 190
3 474 483 108
3 108 483 109
3 484 472 72
3 472 470 72
3 78 480 485
3 78 471 480
3 69 64 71
3 73 64 69
3 89 85 486
3 89 86 85
3 487 94 91
3 94 93 91
3 99 472 484
3 99 475 472
3 485 480 103
3 480 481 103
3 111 105 107
3 159 148 488
3 158 148 159
3 166 121 80
3 121 84 80
3 83 123 168
3 83 92 123
3 221 220 489
3 490 226 228
3 486 85 176
3 85 120 176
3 178 94 487
3 178 122 94
3 187 186 99
3 186 475 99
3 103 190 192
3 103 481 190
3 131 126 132
3 133 126 131
3 135 491 136
3 136 491 148
3 139 492 137
3 152 492 139
3 150 160 151
3 151 160 112
3 483 493 494
3 493 495 494
3 495 496 497
3 495 498 496
3 493 499 498
3 499 500 498
3 500 501 496
3 500 502 501
3 160 216 503
3 216 218 503
3 504 505 506
3 505 507 508
3 505 509 507
3 504 510 509
3 510 511 509
3 164 166 512
3 195 491 135
3 513 491 195
3 137 492 196
3 196 492 514
3 194 515 516
3 194 517 515
3 199 513 517
3 196 518 201
3 196 519 518
3 514 202 519
3 474 516 483
3 516 515 483
3 157 200 149
3 157 520 200
3 150 201 160
3 201 518 160
3 521 522 482
3 521 523 522
3 518 216 160
3 518 217 216
3 518 524 217
3 518 519 524
3 262 525 231
3 525 232 231
3 243 526 265
3 243 244 526
3 204 527 181
3 527 528 181
3 528 527 529
3 530 529 527
3 531 207 206
3 208 207 532
3 533 534 184
3 534 210 184
3 535 223 215
3 536 223 535
3 537 218 538
3 538 218 217
3 204 539 540
3 204 203 539
3 541 542 210
3 542 209 210
3 530 543 529
3 529 543 531
3 544 532 545
3 546 547 541
3 548 549 550
3 245 551 246
3 551 552 246
3 238 237 553
3 554 237 239
3 258 555 260
3 258 556 555
3 557 558 559
3 557 560 558
3 213 561 557
3 213 562 561
3 214 563 213
3 214 269 563
3 558 564 565
3 561 566 560
3 561 567 566
3 563 567 562
3 563 268 567
3 566 268 568
3 568 268 329
3 551 245 569
3 245 248 569
3 570 260 555
3 570 261 260
3 571 328 572
3 573 565 574
3 565 564 574
3 575 576 577
3 575 578 576
3 579 282 580
3 580 282 281
3 307 308 581
3 287 581 308
3 582 303 305
3 303 302 305
3 320 321 583
3 320 313 321
3 583 584 585
3 583 348 584
3 319 323 313
3 319 586 323
3 316 323 324
3 323 586 324
3 325 326 316
3 325 587 326
3 588 589 587
3 589 352 587
3 585 584 317
3 584 331 317
3 588 327 589
3 589 327 333
3 332 333 277
3 332 356 333
3 590 280 591
3 590 386 280
3 592 593 594
3 549 595 596
3 335 597 321
3 597 376 321
3 326 598 336
3 326 378 598
3 344 421 345
3 355 354 360
3 354 599 360
3 380 354 342
3 380 599 354
3 334 597 335
3 334 600 597
3 336 598 337
3 598 601 337
3 602 367 366
3 412 603 374
3 604 605 445
3 377 606 415
3 447 607 608
3 443 444 609
3 419 418 610
3 418 611 610
3 612 422 425
3 612 613 422
3 614 615 616
3 615 455 616
3 617 618 619
3 617 459 618
3 1 8 2
3 1 9 8
3 5 12 6
3 5 13 12
3 11 3 8
3 3 2 8
3 15 7 12
3 7 6 12
3 17 30 18
3 17 34 30
3 41 27 32
3 27 25 32
3 9 89 10
3 9 86 89
3 13 91 14
3 13 61 91
3 55 92 54
3 92 83 54
3 58 11 89
3 11 10 89
3 93 15 91
3 15 14 91
3 63 71 64
3 63 484 71
3 485 67 77
3 485 65 67
3 478 477 104
3 477 37 104
3 478 130 70
3 104 130 478
3 84 51 80
3 84 50 51
3 90 486 487
3 90 88 486
3 95 484 63
3 95 97 484
3 102 65 485
3 102 96 65
3 109 620 110
3 109 497 620
3 113 621 114
3 113 622 621
3 623 159 624
3 159 488 624
3 625 118 626
3 118 115 626
3 125 132 126
3 125 187 132
3 192 129 143
3 192 127 129
3 146 105 111
3 146 106 105
3 117 116 154
3 521 627 118
3 521 482 627
3 483 494 109
3 494 497 109
3 160 503 113
3 503 622 113
3 164 163 165
3 164 161 163
3 171 169 172
3 171 167 169
3 162 179 163
3 162 180 179
3 173 165 163
3 174 628 169
3 628 172 169
3 175 177 176
3 177 178 176
3 182 170 183
3 170 172 183
3 544 533 532
3 533 208 532
3 531 206 529
3 206 528 529
3 188 187 125
3 188 185 187
3 191 127 192
3 191 189 127
3 190 482 191
3 482 522 191
3 474 185 516
3 474 186 185
3 513 145 491
3 513 199 145
3 200 520 195
3 520 517 195
3 202 492 153
3 202 514 492
3 522 523 198
3 523 519 198
3 159 211 157
3 157 211 520
3 211 213 520
3 118 508 521
3 118 506 508
3 118 625 506
3 625 504 506
3 170 244 171
3 244 241 171
3 629 622 218
3 232 161 233
3 232 162 161
3 538 524 630
3 204 530 527
3 204 540 530
3 207 543 631
3 207 531 543
3 534 541 210
3 534 546 541
3 532 207 545
3 207 631 545
3 246 552 250
3 552 632 250
3 215 270 214
3 270 269 214
3 556 258 633
3 633 258 257
3 634 635 240
3 507 577 636
3 577 576 636
3 637 580 638
3 637 579 580
3 539 289 540
3 539 291 289
3 224 299 230
3 224 300 299
3 255 318 263
3 263 318 273
3 267 277 571
3 571 277 328
3 573 559 565
3 573 499 559
3 278 538 279
3 278 537 538
3 286 222 287
3 222 229 287
3 296 542 294
3 542 541 294
3 306 639 304
3 639 640 304
3 273 525 264
3 266 526 277
3 547 549 292
3 298 641 299
3 641 305 299
3 315 313 316
3 315 311 313
3 585 318 320
3 585 317 318
3 327 325 328
3 327 588 325
3 575 381 578
3 381 383 578
3 642 591 574
3 643 644 594
3 644 592 594
3 280 385 307
3 280 386 385
3 293 391 310
3 293 392 391
3 311 315 334
3 315 337 334
3 371 564 372
3 371 574 564
3 346 321 344
3 321 375 344
3 349 326 350
3 349 379 326
3 343 331 357
3 273 331 343
3 357 331 347
3 331 584 347
3 353 589 355
3 589 333 355
3 359 384 357
3 359 645 384
3 390 645 388
3 645 646 388
3 388 646 290
3 293 647 392
3 388 290 389
3 290 309 389
3 394 303 395
3 303 582 395
3 601 648 337
3 601 600 648
3 334 648 600
3 334 337 648
3 368 364 369
3 364 363 369
3 375 603 344
3 349 606 379
3 606 351 649
3 606 349 351
3 421 344 603
3 392 599 393
3 392 647 599
3 403 446 413
3 403 432 446
3 402 401 650
3 401 651 650
3 651 407 650
3 407 409 650
3 417 441 408
3 417 448 441
3 652 362 411
3 414 605 603
3 421 603 418
3 606 607 416
3 422 606 423
3 653 367 602
3 653 410 367
3 419 425 420
3 425 424 420
3 433 402 650
3 409 433 650
3 428 654 655
3 428 450 654
3 617 454 460
3 617 616 454
3 460 454 433
3 461 609 656
3 611 462 610
3 611 463 462
3 657 604 658
3 657 605 604
3 615 658 604
3 615 614 658
3 659 608 660
3 608 607 660
3 608 659 618
3 659 619 618
3 465 613 466
3 613 612 466
3 658 616 661
3 614 616 658
3 662 617 659
3 659 617 619
3 659 465 662
3 465 467 662
3 463 661 464
3 463 658 661
3 466 464 467
3 466 462 464
3 34 17 473
3 473 472 474
3 479 27 41
3 482 480 479
3 637 663 579
3 637 501 663
3 573 579 663
3 306 664 639
3 664 510 639
3 664 306 577
3 539 665 291
3 539 203 665
3 272 665 666
3 272 291 665
3 296 667 542
3 667 209 542
3 668 667 274
3 667 296 274
3 558 568 564
3 564 568 669
3 253 553 254
3 358 345 421
3 358 347 345
3 108 107 35
3 107 36 35
3 37 107 105
3 37 36 107
3 156 116 38
3 116 39 38
3 119 40 116
3 116 40 39
3 499 515 559
3 499 483 515
3 636 523 507
3 523 521 507
3 578 630 576
3 576 630 636
3 341 276 670
3 670 276 279
3 292 671 360
3 671 361 360
3 596 671 549
3 671 292 549
3 647 292 360
3 293 292 647
3 420 358 421
3 420 644 358
3 423 361 424
3 361 671 424
3 611 657 463
3 465 660 613
3 78 155 469
3 627 41 119
3 119 41 40
3 111 488 146
3 488 491 146
3 114 117 492
3 117 154 492
3 219 638 229
3 672 638 219
3 536 623 489
3 489 623 624
3 490 622 629
3 621 622 490
3 177 628 174
3 177 183 628
3 636 519 523
3 636 630 519
3 534 544 546
3 534 533 544
3 212 536 215
3 211 536 212
3 545 550 544
3 550 547 544
3 339 372 329
3 329 372 669
3 543 673 631
3 543 674 673
3 631 673 675
3 673 593 675
3 631 675 545
3 675 548 545
3 291 271 284
3 272 271 291
3 300 275 295
3 278 275 300
3 307 287 281
3 281 287 580
3 290 359 288
3 290 646 359
3 373 372 339
3 370 372 373
3 382 341 383
3 380 341 382
3 389 387 390
3 385 387 389
3 395 393 396
3 391 393 395
3 573 663 499
3 663 502 499
3 507 664 577
3 507 511 664
3 371 642 574
3 235 553 252
3 572 554 634
3 108 34 474
3 35 34 108
3 603 611 418
3 603 657 611
3 422 613 606
3 613 660 606
3 110 620 488
3 620 624 488
3 114 621 115
3 621 626 115
3 166 83 168
3 166 80 83
3 487 486 178
3 486 176 178
3 179 173 163
3 179 175 173
3 159 623 211
3 623 536 211
3 241 167 171
3 537 227 218
3 227 629 218
3 230 640 225
3 225 640 676
3 635 239 241
3 554 239 635
3 237 319 553
3 237 586 319
3 286 215 222
3 286 270 215
3 674 593 673
3 674 594 593
3 273 666 525
3 586 237 324
3 237 554 324
3 526 668 277
3 270 284 271
3 270 286 284
3 274 295 275
3 274 296 295
3 675 592 595
3 595 592 596
3 594 674 288
3 549 548 595
3 548 675 595
3 310 582 297
3 297 582 641
3 591 642 386
3 642 371 386
3 288 358 643
3 288 359 358
3 361 423 353
3 423 649 353
3 396 381 394
3 396 382 381
3 425 419 612
3 419 610 612
3 610 462 612
3 462 466 612
3 617 662 616
3 662 661 616
3 661 467 464
3 661 662 467
3 254 553 318
3 553 319 318
3 155 38 469
3 156 38 155
3 233 238 235
3 235 238 553
3 328 324 572
3 572 324 554
3 162 666 180
3 162 525 666
3 182 668 170
3 668 526 170
3 288 543 540
3 386 371 387
3 371 370 387
3 497 637 620
3 637 638 620
3 626 639 625
3 626 640 639
3 515 520 559
3 520 213 559
3 573 282 579
3 573 574 282
3 168 677 166
3 168 241 677
3 301 577 306
3 575 577 301
3 303 394 575
3 394 381 575
3 224 537 300
3 300 537 278
3 229 638 287
3 287 638 580
3 640 230 304
3 304 230 299
3 309 307 389
3 389 307 385
3 582 310 395
3 395 310 391
3 181 184 179
3 184 183 179
3 644 420 671
3 420 424 671
3 221 624 672
3 624 620 672
3 676 626 228
3 626 621 228
3 383 538 630
3 383 670 538
3 512 233 161
3 512 677 233
3 373 390 370
3 390 387 370
3 382 396 380
3 396 393 380
