ply
format ascii 1.0
comment Created by Blender 2.78 (sub 0) - www.blender.org, source file: ''
element vertex 284
property float x
property float y
property float z
property uchar red
property uchar green
property uchar blue
element face 360
property list uchar uint vertex_indices
end_header
-2.50 -1.00 0.50 17 17 17
-3.00 -0.50 0.50 17 17 17
-2.50 -0.50 0.00 17 17 17
-2.00 -0.50 0.50 17 17 17
1.50 -1.00 0.50 17 17 17
1.00 -0.50 0.50 17 17 17
1.50 -0.50 0.00 17 17 17
2.00 -0.50 0.50 17 17 17
-2.50 0.50 0.00 17 17 17
-3.00 0.50 0.50 17 17 17
-2.50 1.00 0.50 17 17 17
-2.00 0.50 0.50 17 17 17
1.50 0.50 0.00 17 17 17
1.00 0.50 0.50 17 17 17
1.50 1.00 0.50 17 17 17
2.00 0.50 0.50 17 17 17
-2.50 -0.250000 1.250000 17 17 17
-3.00 0.00 1.00 17 17 17
-2.00 0.50 1.00 17 17 17
-2.50 1.00 1.00 17 17 17
-2.50 3.00 10.00 255 153 102
-3.00 2.50 9.50 255 153 102
-3.00 2.50 10.00 255 153 102
-3.00 0.00 1.00 102 51 0
-3.00 0.50 1.50 102 51 0
-3.00 0.50 1.00 102 51 0
2.00 2.50 10.00 255 153 102
1.50 3.00 9.50 255 153 102
1.50 3.00 10.00 255 153 102
2.00 0.00 1.00 17 17 17
2.00 0.50 1.00 17 17 17
-2.00 0.00 1.00 102 51 0
-2.00 0.50 1.00 102 51 0
-2.00 0.50 1.50 102 51 0
-3.00 0.50 1.00 17 17 17
-2.00 0.00 1.00 17 17 17
1.00 0.00 1.00 102 51 0
1.00 0.50 1.50 102 51 0
1.00 0.50 1.00 102 51 0
1.50 -0.250000 1.250000 17 17 17
2.00 0.00 1.00 102 51 0
2.00 0.50 1.00 102 51 0
2.00 0.50 1.50 102 51 0
-2.50 1.00 1.00 102 51 0
-2.50 1.00 2.50 102 51 0
1.50 2.00 7.50 85 85 85
2.50 0.50 8.00 85 85 85
3.00 0.50 7.50 85 85 85
-2.50 2.00 7.50 85 85 85
-4.00 0.50 4.00 85 85 85
-4.00 0.50 7.50 85 85 85
1.50 1.00 1.00 102 51 0
1.50 0.00 1.50 102 51 0
2.00 0.50 2.50 102 51 0
1.50 0.00 2.50 102 51 0
-0.50 1.00 8.50 255 153 102
0.50 0.50 9.00 255 153 102
0.00 0.50 8.50 255 153 102
2.00 -1.50 14.00 102 51 0
1.50 -2.00 14.50 102 51 0
1.50 -2.00 14.00 102 51 0
-1.50 0.50 9.00 255 153 102
-1.00 0.50 8.50 255 153 102
-2.50 -2.00 14.00 102 51 0
-3.00 -1.50 14.50 102 51 0
-3.00 -1.50 14.00 102 51 0
1.50 -0.50 3.00 102 51 0
2.00 0.00 3.00 102 51 0
-2.50 -1.00 3.50 102 51 0
-2.50 -0.50 3.00 102 51 0
-2.50 0.00 1.50 102 51 0
-2.00 0.50 2.50 102 51 0
-2.50 0.00 2.50 102 51 0
2.00 1.00 3.00 102 51 0
1.50 1.50 3.00 102 51 0
2.250000 1.250000 3.50 102 51 0
2.00 0.00 3.00 255 153 102
3.00 0.50 3.50 255 153 102
2.250000 -0.250000 3.50 255 153 102
1.50 -0.250000 1.250000 102 51 0
0.50 0.50 3.00 102 51 0
-1.50 0.50 3.00 102 51 0
1.50 -1.00 4.00 102 51 0
2.250000 -0.250000 3.50 102 51 0
2.250000 -0.250000 4.00 102 51 0
-3.00 0.00 3.00 102 51 0
-2.50 -1.50 15.00 102 51 0
-2.50 -2.00 14.50 102 51 0
-3.250000 -0.250000 3.50 255 153 102
-3.250000 0.50 2.750000 255 153 102
-3.00 0.00 3.00 255 153 102
-2.50 2.00 3.50 102 51 0
1.50 2.00 3.50 102 51 0
-2.50 -1.00 7.50 85 85 85
1.50 -1.00 4.00 85 85 85
1.50 -1.00 7.50 85 85 85
3.00 0.50 4.00 85 85 85
1.00 -2.00 11.00 255 153 102
1.50 -2.00 12.00 255 153 102
1.00 -2.00 12.00 255 153 102
-1.00 1.00 8.00 255 153 102
-3.250000 -0.250000 4.00 255 153 102
-4.00 0.50 3.50 255 153 102
-3.250000 -0.250000 4.00 102 51 0
-2.50 -1.00 4.00 102 51 0
-3.00 1.00 3.00 255 153 102
3.00 0.50 4.00 255 153 102
2.250000 -0.250000 4.00 255 153 102
-3.250000 1.250000 4.00 255 153 102
-4.00 0.50 4.00 255 153 102
-1.00 0.00 8.00 255 153 102
-0.50 0.00 8.50 255 153 102
2.250000 1.250000 4.00 102 51 0
1.50 2.00 4.00 102 51 0
2.250000 1.250000 3.50 255 153 102
1.50 2.00 4.00 85 85 85
-2.50 -0.250000 1.250000 102 51 0
-3.00 0.50 2.50 102 51 0
-2.50 2.00 4.00 102 51 0
-3.250000 1.250000 3.50 102 51 0
-3.250000 1.250000 4.00 102 51 0
1.50 1.00 1.00 17 17 17
1.00 0.50 1.00 17 17 17
2.00 1.00 3.00 255 153 102
-1.00 -2.00 11.00 255 153 102
1.00 -2.00 10.00 255 153 102
0.00 -2.00 11.00 255 153 102
-0.50 -0.50 8.00 85 85 85
1.50 -0.50 8.00 85 85 85
-3.50 0.50 8.00 85 85 85
-2.50 -0.50 8.00 85 85 85
-3.00 0.00 11.00 255 153 102
-3.00 -1.50 11.00 255 153 102
-3.00 -1.00 12.00 255 153 102
-1.00 0.00 8.00 85 85 85
-0.50 -0.250000 8.250000 85 85 85
-1.250000 0.50 8.250000 85 85 85
-1.50 0.50 8.00 85 85 85
1.00 1.00 9.00 255 153 102
-0.50 1.50 9.00 255 153 102
0.00 0.00 8.00 85 85 85
0.50 0.50 8.00 85 85 85
0.250000 0.50 8.250000 85 85 85
0.00 0.00 8.00 255 153 102
-2.50 1.50 8.00 85 85 85
-1.00 1.00 8.00 85 85 85
-2.50 1.50 3.00 102 51 0
-0.50 1.250000 8.250000 85 85 85
-0.50 1.50 8.00 85 85 85
-2.50 -2.00 12.00 102 51 0
-1.00 -2.00 13.00 102 51 0
-2.50 -2.00 13.00 102 51 0
0.00 1.00 8.00 85 85 85
0.00 1.00 8.00 255 153 102
-0.50 1.250000 8.250000 255 153 102
-2.50 -2.00 9.50 102 51 0
-3.00 -1.50 9.50 102 51 0
-2.50 -1.50 9.00 102 51 0
1.50 -2.00 9.50 102 51 0
1.50 -1.50 9.00 102 51 0
1.50 1.00 2.50 102 51 0
1.00 0.50 2.50 102 51 0
2.00 -1.50 9.50 102 51 0
-2.50 1.00 9.00 102 51 0
-3.00 1.00 9.50 102 51 0
-0.50 -0.50 9.00 255 153 102
-2.00 -1.00 9.00 255 153 102
1.00 -1.00 9.00 102 51 0
2.00 1.00 9.50 102 51 0
1.50 1.00 9.00 102 51 0
1.50 2.50 9.00 255 153 102
2.00 1.00 9.50 255 153 102
1.50 1.00 9.00 255 153 102
-2.50 1.00 9.00 255 153 102
-3.00 1.00 9.50 255 153 102
-2.50 2.50 9.00 255 153 102
-2.50 3.00 9.50 255 153 102
2.00 2.50 9.50 255 153 102
-3.00 -1.50 11.00 102 51 0
-2.50 -2.00 11.00 102 51 0
1.50 -2.00 11.00 102 51 0
2.00 -1.50 11.00 102 51 0
-3.00 1.00 10.00 255 153 102
2.00 1.00 10.00 255 153 102
2.00 2.50 10.00 102 51 0
2.00 2.50 14.50 102 51 0
2.00 1.00 12.00 102 51 0
-2.50 3.00 10.00 102 51 0
1.50 3.00 14.50 102 51 0
1.50 3.00 10.00 102 51 0
-3.00 -1.50 12.00 255 153 102
-2.50 -2.00 11.00 255 153 102
-2.50 -2.00 12.00 255 153 102
-1.00 -2.00 12.00 17 0 0
-2.00 -2.00 11.00 17 0 0
-1.00 -2.00 11.00 17 0 0
1.00 -2.00 11.00 17 0 0
0.00 -2.00 12.00 17 0 0
0.00 -2.00 11.00 17 0 0
2.00 -1.50 11.00 255 153 102
2.00 -1.50 12.00 255 153 102
-3.00 2.50 14.50 102 51 0
-3.00 1.00 12.00 102 51 0
-3.00 1.00 13.00 102 51 0
-3.00 -1.50 13.00 255 153 102
-3.00 -1.00 14.00 255 153 102
-3.00 -1.00 13.00 255 153 102
-3.00 -1.50 13.00 102 51 0
1.50 -1.00 3.50 102 51 0
-3.00 -1.00 12.00 102 51 0
-3.00 -1.00 13.00 102 51 0
1.50 2.50 15.00 102 51 0
1.50 -1.50 15.00 102 51 0
1.50 -2.00 13.00 102 51 0
2.00 -1.50 12.00 102 51 0
2.00 -1.50 13.00 102 51 0
2.00 -1.00 12.00 102 51 0
-2.00 -2.00 11.00 255 153 102
-2.00 -2.00 12.00 255 153 102
2.00 -1.00 13.00 255 153 102
2.00 -1.00 12.00 255 153 102
2.00 0.00 12.00 255 153 102
-3.00 -1.50 14.00 255 153 102
-2.50 -2.00 13.00 255 153 102
-2.50 -2.00 14.00 255 153 102
2.00 -1.50 14.00 255 153 102
1.50 -2.00 13.00 255 153 102
2.00 -1.50 13.00 255 153 102
1.00 0.00 1.00 17 17 17
-2.00 -2.00 10.00 102 51 0
-2.50 3.00 14.50 102 51 0
2.00 -1.50 14.50 102 51 0
0.00 -2.00 13.00 102 51 0
1.50 -2.00 12.00 102 51 0
-2.50 2.50 15.00 102 51 0
-3.00 1.00 3.00 102 51 0
1.50 1.50 8.00 85 85 85
-2.50 2.00 4.00 85 85 85
2.250000 0.50 2.750000 102 51 0
2.250000 0.50 2.750000 255 153 102
-3.250000 -0.250000 3.50 102 51 0
-3.250000 0.50 2.750000 102 51 0
-2.50 -1.00 4.00 85 85 85
1.50 -2.00 11.00 255 153 102
-1.250000 0.50 8.250000 255 153 102
-3.250000 1.250000 3.50 255 153 102
-0.50 -0.250000 8.250000 255 153 102
2.250000 1.250000 4.00 255 153 102
0.00 -2.00 13.00 255 153 102
1.50 -2.00 14.00 255 153 102
-1.00 -2.00 13.00 255 153 102
-2.00 -2.00 10.00 255 153 102
-3.00 1.00 13.00 255 153 102
-3.00 0.00 12.00 255 153 102
-3.00 1.00 12.00 255 153 102
1.00 -1.00 9.00 255 153 102
0.250000 0.50 8.250000 255 153 102
-1.00 -2.00 12.00 102 51 0
-2.00 1.00 9.00 255 153 102
1.00 1.00 9.00 102 51 0
-2.00 -1.00 9.00 102 51 0
-2.00 1.00 9.00 102 51 0
2.00 0.00 11.00 102 51 0
2.00 1.00 10.00 102 51 0
2.00 -1.00 14.00 102 51 0
2.00 -1.00 13.00 102 51 0
2.00 1.00 13.00 102 51 0
2.00 0.00 12.00 102 51 0
-2.00 -2.00 12.00 17 0 0
1.00 -2.00 12.00 17 0 0
-3.00 2.50 10.00 102 51 0
-3.00 1.00 10.00 102 51 0
-3.00 0.00 11.00 102 51 0
-3.00 0.00 12.00 102 51 0
-3.00 -1.00 14.00 102 51 0
-3.00 -1.50 12.00 102 51 0
2.00 0.00 11.00 255 153 102
2.00 1.00 12.00 255 153 102
2.00 1.00 13.00 255 153 102
2.00 -1.00 14.00 255 153 102
-2.00 -2.00 11.00 102 51 0
1.00 -2.00 10.00 102 51 0
1.00 -2.00 11.00 102 51 0
0.00 -2.00 12.00 102 51 0
3 0 1 2
3 3 0 2
3 4 5 6
3 7 4 6
3 8 9 10
3 11 8 10
3 12 13 14
3 15 12 14
3 1 16 17
3 3 16 0
3 18 10 19
3 20 21 22
3 23 24 25
3 26 27 28
3 29 15 30
3 31 32 33
3 19 9 34
3 35 11 18
3 36 37 38
3 39 5 4
3 40 41 42
3 43 24 44
3 45 46 47
3 48 49 50
3 37 51 38
3 52 53 54
3 55 56 57
3 52 40 42
3 58 59 60
3 33 43 44
3 61 55 62
3 63 64 65
3 66 54 67
3 66 68 69
3 70 71 72
3 73 74 75
3 76 77 78
3 52 36 79
3 80 81 74
3 82 83 84
3 69 85 72
3 59 86 87
3 88 89 90
3 74 91 92
3 93 94 95
3 96 95 94
3 97 98 99
3 55 100 62
3 101 102 88
3 103 68 104
3 102 105 89
3 78 106 107
3 108 102 109
3 62 110 111
3 112 92 113
3 114 106 77
3 91 113 92
3 115 48 45
3 17 9 1
3 115 47 96
3 49 93 50
3 70 23 116
3 117 70 72
3 118 119 120
3 121 13 122
3 77 123 114
3 124 125 126
3 93 95 127
3 128 47 46
3 129 93 130
3 131 132 133
3 134 127 135
3 134 136 137
3 138 56 139
3 140 141 142
3 111 143 57
3 140 135 127
3 1 8 2
3 137 144 129
3 50 144 48
3 145 137 136
3 71 146 81
3 145 147 148
3 149 150 151
3 152 148 147
3 153 154 55
3 152 142 141
3 70 31 33
3 45 48 148
3 155 156 157
3 158 157 159
3 80 160 161
3 162 158 159
3 163 156 164
3 165 166 61
3 141 128 46
3 161 52 54
3 160 53 42
3 12 7 6
3 167 159 157
3 168 159 169
3 170 171 172
3 21 173 174
3 175 21 176
3 27 175 176
3 177 170 27
3 8 3 2
3 178 155 179
3 180 162 181
3 21 182 22
3 183 177 26
3 184 185 186
3 39 7 29
3 27 20 28
3 187 188 189
3 56 111 57
3 188 184 189
3 190 191 192
3 193 194 195
3 196 197 198
3 60 87 63
3 98 199 200
3 5 12 6
3 201 202 203
3 204 205 206
3 207 149 151
3 81 72 71
3 104 208 82
3 209 207 210
3 211 86 212
3 213 214 215
3 54 80 161
3 216 215 214
3 192 217 218
3 219 220 221
3 222 223 224
3 225 226 227
3 219 225 227
3 228 13 5
3 155 158 229
3 30 14 121
3 187 201 230
3 86 64 87
3 231 212 59
3 232 233 213
3 64 234 201
3 111 61 62
3 231 211 212
3 230 201 234
3 117 235 44
3 188 234 211
3 185 188 211
3 1 0 16
3 3 35 16
3 18 11 10
3 20 176 21
3 26 177 27
3 29 7 15
3 19 10 9
3 35 3 11
3 39 228 5
3 117 44 24
3 43 25 24
3 45 236 46
3 48 237 49
3 37 161 160
3 160 51 37
3 52 42 53
3 55 139 56
3 52 79 40
3 58 231 59
3 44 71 33
3 33 32 43
3 61 139 55
3 63 87 64
3 67 83 66
3 208 66 83
3 54 53 67
3 238 67 53
3 66 208 68
3 70 33 71
3 73 238 53
3 53 160 73
3 74 92 75
3 73 160 74
3 76 239 77
3 52 37 36
3 80 66 69
3 81 146 74
3 80 69 81
3 82 208 83
3 117 72 85
3 69 68 240
3 85 241 117
3 69 240 85
3 59 212 86
3 88 102 89
3 74 146 91
3 93 242 94
3 96 47 95
3 97 243 98
3 244 62 100
3 55 154 100
3 101 109 102
3 103 240 68
3 102 245 105
3 78 77 106
3 108 245 102
3 246 111 110
3 62 244 110
3 112 75 92
3 114 247 106
3 91 118 113
3 115 237 48
3 17 34 9
3 115 45 47
3 49 242 93
3 70 24 23
3 117 24 70
3 118 91 119
3 121 14 13
3 77 239 123
3 248 226 249
3 249 224 250
3 224 223 250
3 248 249 250
3 124 217 251
3 248 250 124
3 125 97 126
3 126 248 124
3 124 251 125
3 128 127 95
3 130 93 127
3 128 95 47
3 129 50 93
3 206 252 253
3 253 131 133
3 252 254 253
3 132 190 133
3 133 206 253
3 138 255 56
3 256 57 143
3 111 246 143
3 1 9 8
3 129 130 137
3 127 134 130
3 148 144 145
3 137 145 144
3 130 134 137
3 50 129 144
3 71 44 146
3 149 257 150
3 55 57 153
3 256 153 57
3 70 116 31
3 144 148 48
3 236 45 148
3 158 155 157
3 80 74 160
3 163 157 156
3 165 56 255
3 258 173 175
3 175 170 139
3 172 138 170
3 170 138 139
3 258 175 139
3 258 139 61
3 165 255 166
3 166 258 61
3 46 236 141
3 148 152 236
3 127 128 140
3 141 140 128
3 236 152 141
3 161 37 52
3 42 41 51
3 51 160 42
3 12 15 7
3 167 259 169
3 157 163 260
3 163 261 260
3 167 169 159
3 157 260 167
3 168 162 159
3 170 177 171
3 21 175 173
3 27 170 175
3 8 11 3
3 178 156 155
3 180 158 162
3 21 174 182
3 183 171 177
3 262 181 162
3 162 168 263
3 263 184 186
3 185 231 264
3 264 265 266
3 231 58 264
3 262 162 263
3 186 267 262
3 185 264 266
3 186 262 263
3 185 266 186
3 39 4 7
3 27 176 20
3 187 230 188
3 56 165 111
3 188 185 184
3 190 132 191
3 193 268 194
3 196 269 197
3 60 59 87
3 98 243 199
3 5 13 12
3 201 270 202
3 271 164 156
3 156 178 272
3 272 273 202
3 203 210 274
3 156 272 271
3 271 272 202
3 65 64 274
3 274 64 201
3 270 271 202
3 203 274 201
3 204 222 205
3 207 275 149
3 81 69 72
3 104 68 208
3 209 275 207
3 211 234 86
3 213 233 214
3 54 66 80
3 216 265 215
3 192 191 217
3 199 276 220
3 221 277 278
3 278 219 221
3 220 200 199
3 276 221 220
3 222 204 223
3 225 249 226
3 219 279 225
3 228 122 13
3 229 280 179
3 158 180 281
3 180 282 281
3 229 179 155
3 158 281 229
3 30 15 14
3 187 270 201
3 232 283 233
3 64 86 234
3 111 165 61
3 231 185 211
3 146 44 235
3 117 241 235
3 235 119 146
3 91 146 119
3 188 230 234
